<svg xmlns="http://www.w3.org/2000/svg" viewBox="0 0 12.74 10.62"><defs><style>.cls-1{fill:#414042;}</style></defs><title>arrow1</title><g id="Layer_2" data-name="Layer 2"><g id="Layer_1-2" data-name="Layer 1"><rect class="cls-1" x="2.12" y="4.25" width="2.12" height="2.12" transform="translate(-2.12 8.49) rotate(-90)"/><rect class="cls-1" x="4.25" y="4.25" width="2.12" height="2.12" transform="translate(0 10.62) rotate(-90)"/><rect class="cls-1" x="6.37" y="4.25" width="2.12" height="2.12" transform="translate(2.12 12.74) rotate(-90)"/><rect class="cls-1" x="8.49" y="4.25" width="2.12" height="2.12" transform="translate(4.25 14.86) rotate(-90)"/><rect class="cls-1" x="10.62" y="4.25" width="2.12" height="2.12" transform="translate(6.37 16.99) rotate(-90)"/><rect class="cls-1" y="4.25" width="2.12" height="2.12" transform="translate(-4.25 6.37) rotate(-90)"/><rect class="cls-1" x="2.12" y="2.12" width="2.12" height="2.12" transform="translate(0 6.37) rotate(-90)"/><rect class="cls-1" x="4.25" width="2.12" height="2.12" transform="translate(4.25 6.37) rotate(-90)"/><rect class="cls-1" x="2.12" y="6.37" width="2.12" height="2.12" transform="translate(-4.25 10.62) rotate(-90)"/><rect class="cls-1" x="4.25" y="8.49" width="2.12" height="2.12" transform="translate(-4.25 14.86) rotate(-90)"/></g></g></svg>